<?xml version="1.0" encoding="UTF-8"?>
<svg width="700pt" height="700pt" version="1.1" viewBox="0 0 700 700" xmlns="http://www.w3.org/2000/svg">
 <g>
  <path d="m214.9 158.43c-4.3789-4.418-10.344-6.9023-16.566-6.9023-6.2188 0-12.184 2.4844-16.566 6.9023l-105 105c-4.418 4.3828-6.9023 10.344-6.9023 16.566s2.4844 12.184 6.9023 16.566l105 105c4.3828 4.418 10.348 6.9023 16.566 6.9023 6.2227 0 12.188-2.4844 16.566-6.9023 4.418-4.3828 6.9023-10.344 6.9023-16.566s-2.4844-12.184-6.9023-16.566l-88.664-88.434 88.668-88.434h-0.003906c4.418-4.3828 6.9023-10.344 6.9023-16.566s-2.4844-12.184-6.9023-16.566z"/>
  <path d="m518.23 158.43c-5.918-5.918-14.547-8.2305-22.633-6.0625-8.082 2.1641-14.398 8.4805-16.566 16.566-2.1641 8.082 0.14453 16.711 6.0664 22.629l88.664 88.434-88.668 88.434h0.003906c-4.418 4.3828-6.9023 10.344-6.9023 16.566s2.4844 12.184 6.9023 16.566c4.3789 4.418 10.344 6.9023 16.566 6.9023 6.2188 0 12.184-2.4844 16.566-6.9023l105-105c4.418-4.3828 6.9023-10.344 6.9023-16.566s-2.4844-12.184-6.9023-16.566z"/>
  <path d="m453.83 72.566c-5.5078-2.7656-11.891-3.2422-17.75-1.3164-5.8594 1.9219-10.719 6.0859-13.516 11.582l-186.67 373.33v0.003907c-2.7656 5.5078-3.2383 11.891-1.3164 17.75 1.9258 5.8594 6.0898 10.719 11.586 13.516 3.2266 1.7266 6.8398 2.6094 10.5 2.5664 4.3086-0.011719 8.5273-1.2188 12.195-3.4844 3.6641-2.2656 6.6328-5.5 8.5703-9.3477l186.67-373.33v-0.003907c2.7656-5.5078 3.2383-11.891 1.3164-17.75-1.9258-5.8594-6.0898-10.719-11.586-13.516z"/>
 </g>
</svg>
